<?xml version="1.0" encoding="utf-8"?>
<!-- Generator: Adobe Illustrator 23.0.1, SVG Export Plug-In . SVG Version: 6.00 Build 0)  -->
<svg version="1.1" id="Layer_1" xmlns="http://www.w3.org/2000/svg" xmlns:xlink="http://www.w3.org/1999/xlink" x="0px" y="0px"
	 viewBox="0 0 100 100" style="enable-background:new 0 0 100 100;" xml:space="preserve">
<g>
	<path d="M96.9,48.7h-4.5C91,28.9,76.6,12.4,57,8.7V2.6c0-1-0.6-1.9-1.5-2.3c-0.9-0.4-2-0.2-2.7,0.4l-9.6,8.6
		c-0.2,0.2-0.4,0.5-0.6,0.8V2.6c0-1-0.6-1.9-1.5-2.3c-0.9-0.4-2-0.2-2.7,0.4l-9.6,8.6c-0.5,0.5-0.8,1.1-0.8,1.8s0.2,1.3,0.7,1.8
		l9.6,9.6c0.5,0.5,1.1,0.7,1.8,0.7c0.3,0,0.6-0.1,1-0.2c0.9-0.4,1.5-1.3,1.5-2.3v-8.5c0.1,0.2,0.3,0.5,0.5,0.7l9.6,9.6
		c0.5,0.5,1.1,0.7,1.8,0.7c0.3,0,0.6-0.1,1-0.2c0.9-0.4,1.5-1.3,1.5-2.3v-7.1c16.8,3.6,29.1,17.9,30.3,34.9H79
		c-1.4,0-2.5,1.1-2.5,2.5s1.1,2.5,2.5,2.5h8.4C86.3,73.6,70,89.6,50,90.2V79.2c0-1.4-1.1-2.5-2.5-2.5S45,77.8,45,79.2v10.9
		c-18.9-1.8-33.8-17.3-34.9-36.4h7.7c1.4,0,2.5-1.1,2.5-2.5s-1.1-2.5-2.5-2.5H3c-1.4,0-2.5,1.1-2.5,2.5s1.1,2.5,2.5,2.5h2.1
		c1,21.9,18.2,39.6,39.9,41.4V97c0,1.4,1.1,2.5,2.5,2.5S50,98.4,50,97v-1.8c22.8-0.6,41.3-18.8,42.4-41.6h4.5c1.4,0,2.5-1.1,2.5-2.5
		S98.2,48.7,96.9,48.7z M37.7,14.8l-3.5-3.5l3.5-3.1V14.8z M52,14.8l-3.5-3.5L52,8.2V14.8z"/>
	<path d="M22.8,71.2c1.3,0.5,2.7-0.2,3.2-1.5l4.2-11.9h14.4l4.4,12.1c0,0,0,0,0,0c0,0,0,0.1,0.1,0.1c0,0.1,0.1,0.2,0.1,0.3
		c0,0,0.1,0.1,0.1,0.1c0.1,0.1,0.1,0.2,0.2,0.2c0,0,0.1,0.1,0.1,0.1c0.1,0.1,0.1,0.1,0.2,0.2c0,0,0.1,0.1,0.1,0.1
		c0.1,0.1,0.2,0.1,0.3,0.2c0,0,0.1,0,0.1,0c0.1,0.1,0.3,0.1,0.4,0.2c0,0,0.1,0,0.1,0c0.1,0,0.2,0.1,0.4,0.1c0,0,0,0,0,0
		c0.4,0,1.8,0.2,3.7,0.2c4.5,0,12-0.7,16.3-4.6c2.2-2,3.3-4.6,3.3-7.6c0-3.6-1.1-6.6-3.4-8.8c-1.1-1.1-2.4-1.9-3.8-2.6
		c3.1-1.7,5.8-4.4,5.8-8.4c0-3.3-1.2-6.2-3.6-8.1c-3.8-3.1-10-4-18.5-2.4c0,0,0,0,0,0c-0.1,0-0.2,0.1-0.3,0.1c-0.1,0-0.1,0-0.2,0.1
		c-0.1,0-0.2,0.1-0.2,0.1c-0.1,0-0.1,0.1-0.2,0.1c-0.1,0-0.1,0.1-0.2,0.1c-0.1,0.1-0.1,0.1-0.2,0.2c-0.1,0.1-0.1,0.1-0.2,0.2
		c0,0.1-0.1,0.1-0.1,0.2c0,0.1-0.1,0.1-0.1,0.2c0,0.1-0.1,0.1-0.1,0.2c0,0.1,0,0.1-0.1,0.2C49,30.9,49,31,49,31c0,0.1,0,0.1,0,0.2
		c0,0.1,0,0.2,0,0.3c0,0,0,0,0,0v23.2l-9.2-25.3c-0.4-1-1.3-1.6-2.4-1.6c0,0,0,0,0,0c-1.1,0-2,0.7-2.3,1.7L21.3,68
		C20.8,69.3,21.5,70.8,22.8,71.2z M69.5,59.5c0,1.6-0.5,2.9-1.7,3.9c-3.1,2.8-9.8,3.3-13.9,3.3V51.1c3.8,0,10.5,0,13.7,3.2
		C68.9,55.5,69.5,57.2,69.5,59.5z M66.3,35.4c1.2,1,1.8,2.4,1.8,4.3c0,3.9-7.3,6-10.2,6.5c-1.5-0.1-2.8-0.1-3.9-0.1V33.7
		C59.7,32.9,64,33.5,66.3,35.4z M37.4,37.8l5.5,15.1H32L37.4,37.8z"/>
</g>
</svg>
