<?xml version="1.0" encoding="utf-8"?>
<!-- Generator: Adobe Illustrator 23.0.1, SVG Export Plug-In . SVG Version: 6.00 Build 0)  -->
<svg version="1.1" id="Layer_1" xmlns="http://www.w3.org/2000/svg" xmlns:xlink="http://www.w3.org/1999/xlink" x="0px" y="0px"
	 viewBox="0 0 100 100" style="enable-background:new 0 0 100 100;" xml:space="preserve">
<path d="M51.4,30.2V-0.1h-3v30.3H-0.7v21.3h7v33.4h12.4v15.9h62.6V84.9h12.4V51.5h6.9V30.2H51.4z M18.7,68v13.9H9.3V68H18.7z
	 M18.7,51.5V65H9.3V51.5H18.7z M18.7,33.2v15.3H2.3V33.2H18.7z M38.3,84.9v12.9H21.7V84.9H38.3z M38.3,68v13.9H21.7V68H38.3z
	 M38.3,51.5V65H21.7V51.5H38.3z M38.3,33.2v15.3H21.7V33.2H38.3z M58.7,84.9v12.9H41.3V84.9H58.7z M58.7,68v13.9H41.3V68H58.7z
	 M58.7,51.5V65H41.3V51.5H58.7z M41.3,48.5V33.2h17.5v15.3H41.3z M78.3,84.9v12.9H61.7V84.9H78.3z M78.3,68v13.9H61.7V68H78.3z
	 M78.3,51.5V65H61.7V51.5H78.3z M61.7,48.5V33.2h16.6v15.3H61.7z M97.6,48.5H81.3V33.2h16.3V48.5z M90.7,68v13.9h-9.4V68H90.7z
	 M81.3,65V51.5h9.4V65H81.3z"/>
</svg>
