<?xml version="1.0" encoding="utf-8"?>
<!-- Generator: Adobe Illustrator 23.0.1, SVG Export Plug-In . SVG Version: 6.00 Build 0)  -->
<svg version="1.1" id="Layer_1" xmlns="http://www.w3.org/2000/svg" xmlns:xlink="http://www.w3.org/1999/xlink" x="0px" y="0px"
	 viewBox="0 0 100 100" style="enable-background:new 0 0 100 100;" xml:space="preserve">
<g>
	<g id="Clip-5">
	</g>
	<g id="Clip-8">
	</g>
	<g id="Clip-11">
	</g>
</g>
<g>
	<path d="M98,74l-10.9-5c-1.4-0.6-3.3-0.6-4.7,0L51,83.5c-0.5,0.3-1.6,0.3-2.1,0L17.5,69c-1.4-0.6-3.3-0.6-4.7,0L2,74
		c-1.3,0.6-1.6,1.5-1.6,2.1c0,0.9,0.6,1.7,1.6,2.2l45.7,21.2c0.5,0.2,1.4,0.5,2.2,0.5c1,0,1.7-0.2,2.3-0.5l45.6-21.1
		c0.9-0.4,1.5-1.1,1.6-2c0.1-0.3,0-0.6-0.1-0.9C99.3,75,98.9,74.4,98,74z M95.6,76.2L51,96.8c-0.5,0.3-1.6,0.3-2.1,0L4.4,76.2
		l9.8-4.5c0.2-0.1,0.7-0.2,1-0.2c0.4,0,0.8,0.1,1.1,0.2l31.4,14.5c1.4,0.6,3.3,0.6,4.7,0l31.4-14.6c0.5-0.3,1.6-0.3,2.1,0L95.6,76.2
		z"/>
	<path d="M98,46l-10.9-5c-1.4-0.6-3.3-0.6-4.7,0L51,55.5c-0.5,0.3-1.6,0.3-2.1,0L17.5,41c-1.4-0.6-3.3-0.6-4.7,0L2,46
		c-1,0.4-1.6,1.2-1.6,2.2c0,0.6,0.3,1.5,1.6,2.1l45.7,21.2c0.5,0.2,1.4,0.5,2.2,0.5c1,0,1.7-0.2,2.3-0.5l45.6-21.1
		c0.9-0.4,1.5-1.1,1.6-2c0.1-0.3,0-0.6-0.1-0.9C99.3,47,98.9,46.4,98,46z M95.6,48.2L51,68.8c-0.5,0.3-1.6,0.3-2.1,0L4.4,48.2
		l9.8-4.5c0.2-0.1,0.7-0.2,1-0.2c0.4,0,0.8,0.1,1.1,0.2l31.4,14.5c1.4,0.6,3.3,0.6,4.7,0l31.4-14.6c0.5-0.3,1.6-0.3,2.1,0L95.6,48.2
		z"/>
	<path d="M2,24.2l45.7,19.6c0.6,0.2,1.4,0.4,2.2,0.4c0.9,0,1.7-0.1,2.3-0.4L98,24.2c1.3-0.6,1.6-1.5,1.6-2.1c0-0.6-0.3-1.5-1.6-2.1
		L52.2,0.4c-1.3-0.5-3.2-0.5-4.5,0L2,20c-1.3,0.6-1.6,1.5-1.6,2.1C0.4,22.8,0.8,23.7,2,24.2z M51.1,3.1l44.3,19L51.2,41
		c-0.6,0.2-1.7,0.2-2.3,0L4.7,22.1L48.8,3.2C49.4,2.9,50.5,2.9,51.1,3.1z"/>
</g>
</svg>
