<?xml version="1.0" encoding="utf-8"?>
<!-- Generator: Adobe Illustrator 23.0.1, SVG Export Plug-In . SVG Version: 6.00 Build 0)  -->
<svg version="1.1" id="Layer_1" xmlns="http://www.w3.org/2000/svg" xmlns:xlink="http://www.w3.org/1999/xlink" x="0px" y="0px"
	 viewBox="0 0 100 100" style="enable-background:new 0 0 100 100;" xml:space="preserve">
<path d="M96.7,39.1c-1.4-1.7-3.6-2.7-5.8-2.7H52.2V3.1c0-1.4-1.1-2.5-2.5-2.5c-1.4,0-2.5,1.1-2.5,2.5v33.4H9c-2.2,0-4.3,1-5.8,2.7
	S1.1,43,1.4,45.2l7.4,47.9c0.6,3.7,3.7,6.5,7.5,6.5h67.1c3.8,0,7-2.7,7.5-6.5l7.4-47.9C98.8,43,98.1,40.8,96.7,39.1z M92.9,42.3
	c0.5,0.6,0.7,1.3,0.6,2.1l-1.9,12.5H70.4L72,41.4h18.9C91.7,41.4,92.4,41.8,92.9,42.3z M88.6,75.9H68.4l1.5-14h20.9L88.6,75.9z
	 M38.4,94.5L37,80.9h25.9l-1.4,13.6H38.4z M36.4,75.9l-1.5-14h29.8l-1.5,14H36.4z M9.1,61.9h20.9l1.5,14H11.3L9.1,61.9z M67,41.4
	l-1.6,15.5H34.5l-1.6-15.5H67z M7,42.3c0.5-0.6,1.2-0.9,2-0.9h18.8l1.6,15.5H8.3L6.4,44.5C6.3,43.7,6.5,42.9,7,42.3z M13.8,92.3
	L12,80.9h19.9l1.4,13.6h-17C15.1,94.5,14,93.6,13.8,92.3z M83.5,94.5h-17l1.4-13.6h20l-1.8,11.4C85.9,93.6,84.8,94.5,83.5,94.5z"/>
</svg>
