<?xml version="1.0" encoding="utf-8"?>
<!-- Generator: Adobe Illustrator 23.0.1, SVG Export Plug-In . SVG Version: 6.00 Build 0)  -->
<svg version="1.1" id="Layer_1" xmlns="http://www.w3.org/2000/svg" xmlns:xlink="http://www.w3.org/1999/xlink" x="0px" y="0px"
	 viewBox="0 0 100 100" style="enable-background:new 0 0 100 100;" xml:space="preserve">
<g>
	<path d="M98.5,1.2C98.3,1,98,1,97.8,1.2L49.9,49.3L2.4,1.4c-0.2-0.2-0.5-0.2-0.7,0S1.5,1.9,1.6,2.1l47.6,48l-47.7,48
		c-0.2,0.2-0.2,0.5,0,0.7c0.1,0.1,0.2,0.1,0.4,0.1c0.1,0,0.3,0,0.4-0.1l47.7-48l47.7,48.1c0.1,0.1,0.2,0.1,0.4,0.1
		c0.1,0,0.3,0,0.4-0.1c0.2-0.2,0.2-0.5,0-0.7L50.6,50L98.5,1.9C98.7,1.8,98.7,1.4,98.5,1.2z"/>
	<path d="M98.1,99.9c-0.3,0-0.7,0-1.1-0.4L50,52.1L3,99.4c-0.4,0.4-0.9,0.4-1.1,0.4c-0.3,0-0.7,0-1.1-0.4c-0.3-0.3-0.4-0.6-0.4-1
		c0-0.4,0.2-0.8,0.4-1l47-47.3L0.8,2.7L0.7,2.5C0.4,1.9,0.5,1.2,1,0.7c0.6-0.6,1.5-0.6,2.1,0l46.8,47.2L97.1,0.5
		c0.6-0.6,1.5-0.6,2.1,0l0,0c0.3,0.3,0.5,0.8,0.4,1.3c-0.1,0.3-0.2,0.6-0.5,0.8L52,50l47.2,47.5c0.3,0.3,0.4,0.6,0.4,1
		c0,0.4-0.2,0.8-0.4,1C98.8,99.9,98.3,99.9,98.1,99.9z M97.8,98.9C97.8,98.9,97.8,98.9,97.8,98.9L97.8,98.9z M2.2,98.8L2.2,98.8
		C2.2,98.8,2.2,98.8,2.2,98.8z"/>
</g>
</svg>
