<?xml version="1.0" encoding="utf-8"?>
<!-- Generator: Adobe Illustrator 23.0.1, SVG Export Plug-In . SVG Version: 6.00 Build 0)  -->
<svg version="1.1" id="Layer_1" xmlns="http://www.w3.org/2000/svg" xmlns:xlink="http://www.w3.org/1999/xlink" x="0px" y="0px"
	 viewBox="0 0 100 100" style="enable-background:new 0 0 100 100;" xml:space="preserve">
<g>
	<path d="M69.3,33.2h-25c-0.8,0-1.5,0.6-1.5,1.5v32.7c0,0.8,0.6,1.5,1.5,1.5h13.9v1H44.3c-0.8,0-1.5,0.6-1.5,1.5v7.7
		c0,0.8,0.6,1.5,1.5,1.5h25c0.8,0,1.5-0.6,1.5-1.5V34.6C70.7,33.8,70,33.2,69.3,33.2z M61.1,71.2v-3.9c0-0.8-0.6-1.5-1.5-1.5H45.7
		V36.1h22.1v41.3H45.7v-4.8h13.9C60.5,72.7,61.1,72,61.1,71.2z"/>
	<path d="M98.1,33.2h-25c-0.8,0-1.5,0.6-1.5,1.5v32.7c0,0.8,0.6,1.5,1.5,1.5h13.9v1H73.2c-0.8,0-1.5,0.6-1.5,1.5v7.7
		c0,0.8,0.6,1.5,1.5,1.5h25c0.8,0,1.5-0.6,1.5-1.5V34.6C99.6,33.8,99,33.2,98.1,33.2z M90,71.2v-3.9c0-0.8-0.6-1.5-1.5-1.5H74.6
		V36.1h22.1v41.3H74.6v-4.8h13.9C89.4,72.7,90,72,90,71.2z"/>
	<path d="M26.9,19.7h-9.6c-0.8,0-1.5,0.6-1.5,1.5v12H1.9c-0.8,0-1.5,0.6-1.5,1.5v32.8c0,0.8,0.6,1.5,1.5,1.5h24.7
		c1.2,0,1.8-0.7,1.8-1.8v-46l-0.1-0.2C28,20,27.4,19.7,26.9,19.7z M3.3,65.9V36.1h13.9c0.8,0,1.5-0.6,1.5-1.5V22.6h6.7v43.3H3.3z"/>
	<path d="M40.4,33.2h-9.5c-0.8,0-1.5,0.6-1.5,1.5v32.7c0,0.8,0.6,1.5,1.5,1.5h9.5c0.8,0,1.5-0.6,1.5-1.5V34.6
		C41.8,33.8,41.1,33.2,40.4,33.2z M32.3,65.9V36.1h6.6v29.8H32.3z"/>
	<path d="M40.4,19.7h-9.6c-0.8,0-1.5,0.6-1.5,1.5v9.5c0,0.8,0.6,1.5,1.5,1.5h9.6c0.8,0,1.5-0.6,1.5-1.5v-9.5
		C41.8,20.4,41.1,19.7,40.4,19.7z M32.2,29.3v-6.6h6.7v6.6H32.2z"/>
	<path d="M61.1,42.3c0-0.8-0.6-1.5-1.5-1.5h-5.7c-0.8,0-1.5,0.6-1.5,1.5v17.3c0,0.8,0.6,1.5,1.5,1.5h5.7c0.8,0,1.5-0.6,1.5-1.5V42.3
		z M55.3,58.2V43.8h2.8v14.4H55.3z"/>
	<path d="M90,42.2c0-0.8-0.7-1.4-1.5-1.4h-5.7c-0.8,0-1.5,0.6-1.5,1.5v17c0,1.1,0.7,1.8,1.8,1.8h5.2c1,0,1.8-0.7,1.8-1.8V42.2z
		 M84.2,43.8h2.9v14.4h-2.8C84.2,53.4,84.2,48.5,84.2,43.8z"/>
	<path d="M16.9,40.9h-5.3c-1,0-1.8,0.7-1.8,1.8v16.8c0,1,0.7,1.8,1.8,1.8h5.5c0.8,0,1.5-0.6,1.5-1.5V42.6
		C18.7,41.6,18,40.9,16.9,40.9z M12.8,58.2V43.7h2.9v14.5H12.8z"/>
</g>
</svg>
