<?xml version="1.0" encoding="utf-8"?>
<!-- Generator: Adobe Illustrator 23.0.1, SVG Export Plug-In . SVG Version: 6.00 Build 0)  -->
<svg version="1.1" id="Layer_1" xmlns="http://www.w3.org/2000/svg" xmlns:xlink="http://www.w3.org/1999/xlink" x="0px" y="0px"
	 viewBox="0 0 100 100" style="enable-background:new 0 0 100 100;" xml:space="preserve">
<g>
	<path d="M48.3,88c0.5,0.5,1.2,0.8,1.9,0.8c0,0,0,0,0,0c0.7,0,1.4-0.3,1.9-0.9l19.6-22.7c0.9-1,0.8-2.6-0.3-3.5
		c-1-0.9-2.6-0.8-3.5,0.3L52.5,79.9V2.8c0-1.4-1.1-2.5-2.5-2.5s-2.5,1.1-2.5,2.5v76.7L32.1,62c-0.9-1-2.5-1.1-3.5-0.2
		c-1,0.9-1.1,2.5-0.2,3.5L48.3,88z"/>
	<path d="M97.9,66.2c-1.4,0-2.5,1.1-2.5,2.5v20.6c0,3.1-2.5,5.6-5.6,5.6H10.2c-3.1,0-5.6-2.5-5.6-5.6V68.7c0-1.4-1.1-2.5-2.5-2.5
		s-2.5,1.1-2.5,2.5v20.6c0,5.8,4.8,10.6,10.6,10.6h79.7c5.8,0,10.6-4.8,10.6-10.6V68.7C100.4,67.3,99.3,66.2,97.9,66.2z"/>
</g>
</svg>
