<?xml version="1.0" encoding="utf-8"?>
<!-- Generator: Adobe Illustrator 23.0.1, SVG Export Plug-In . SVG Version: 6.00 Build 0)  -->
<svg version="1.1" id="Layer_1" xmlns="http://www.w3.org/2000/svg" xmlns:xlink="http://www.w3.org/1999/xlink" x="0px" y="0px"
	 viewBox="0 0 100 100" style="enable-background:new 0 0 100 100;" xml:space="preserve">
<style type="text/css">
	.st0{fill:#231F20;}
</style>
<path class="st0" d="M95,20.1C90.3,11.4,80,0.7,57.1-0.1C42.3-0.7,29,4.2,18.6,14.2c-11,10.7-18.2,27-18.2,41.5
	c0,11.2,6.1,27.6,19.4,37c7.2,5,15.7,7.5,25.3,7.5c8.1,0,17-1.8,26.3-5.3c0.5-0.2,0.8-0.7,0.6-1.3l-0.3-0.9
	c-0.1-0.3-0.3-0.5-0.5-0.6c-0.2-0.1-0.5-0.1-0.8,0c-20.1,7.4-36.5,6.7-48.9-2C7.2,80.2,3.4,63.2,3.4,55.7c0-13.8,6.8-29.2,17.3-39.2
	C30.4,7.1,43,2.4,57,2.9c21.6,0.9,31.2,10.6,35.4,18.7c7.4,13.8,4.1,30.9-2.1,41c-6.8,11-16.2,8.4-19,7.4c-4.9-1.9-7.8-5.5-7.5-7.5
	c0.2-1.3,0.7-4,1.4-7.2c0-0.1,0-0.1,0.1-0.1c0.1-0.1,0.2-0.3,0.2-0.6c0-0.1,0-0.2,0-0.3c0.3-1.6,0.6-3.2,1-5c0.4-1.9,0.7-4,1.2-5.9
	c0-0.1,0-0.1,0-0.2v-0.3c0.3-1.3,2.8-14,2.8-14.5c0-0.5-0.3-0.9-0.8-1l-1-0.2c-0.3-0.1-0.6,0-0.8,0.2c-0.2,0.2-0.3,0.4-0.4,0.7
	c0,0.2-0.3,1.5-0.6,3.2c-0.2,1.2-0.5,2.7-0.9,4.4c-0.5-0.9-1-1.7-1.6-2.4c-2-2.4-5.7-5.3-12.4-5.3c-12.8,0-21.9,13.8-22.3,26.7
	c-0.3,10,4.5,16.5,12.7,16.9h0.9c7.9,0,13.8-5.2,17.6-9.9c0,0,0,0,0,0c-0.7,3.8,3.4,8.5,9.3,10.8c2.3,0.9,14.4,4.8,22.6-8.6
	C99.5,53.3,103,35,95,20.1z M51.9,31.1c4.4,0,7.7,1.4,10,4.1c2.2,2.7,2.8,5.9,2.6,7.2L64,45.1c-0.6,3.2-1.3,6.4-1.7,9.2
	c-2.5,4.7-9.4,15-19.9,14.4C33,68.2,32.6,58,32.7,54.9C33,43.4,40.8,31.1,51.9,31.1z"/>
</svg>
