<?xml version="1.0" encoding="utf-8"?>
<!-- Generator: Adobe Illustrator 23.0.1, SVG Export Plug-In . SVG Version: 6.00 Build 0)  -->
<svg version="1.1" id="Layer_1" xmlns="http://www.w3.org/2000/svg" xmlns:xlink="http://www.w3.org/1999/xlink" x="0px" y="0px"
	 viewBox="0 0 100 100" style="enable-background:new 0 0 100 100;" xml:space="preserve">
<path d="M72.1,0.4H53.3c-2.6,0-4.7,0.8-6.2,2.4c-2.2,2.4-2.3,5.7-2.2,7v30.9H27.1c-0.8,0-1.5,0.6-1.5,1.5c0,0.8,0.6,1.5,1.5,1.5
	h17.7v54.5c0,0.8,0.6,1.5,1.5,1.5c0.8,0,1.5-0.6,1.5-1.5V43.7h17c0.8,0,1.5-0.6,1.5-1.5c0-0.8-0.6-1.5-1.5-1.5h-17l0-31
	c0,0-0.2-3.1,1.4-4.8c0.9-1,2.2-1.5,4-1.5H72c0.8,0,1.5-0.6,1.5-1.5C73.5,0.9,72.8,0.4,72.1,0.4z"/>
</svg>
