<?xml version="1.0" encoding="utf-8"?>
<!-- Generator: Adobe Illustrator 23.0.1, SVG Export Plug-In . SVG Version: 6.00 Build 0)  -->
<svg version="1.1" id="Layer_1" xmlns="http://www.w3.org/2000/svg" xmlns:xlink="http://www.w3.org/1999/xlink" x="0px" y="0px"
	 viewBox="0 0 100 100" style="enable-background:new 0 0 100 100;" xml:space="preserve">
<g>
	<path d="M95.4,99.6c-0.4,0-0.8-0.2-1-0.4L53.8,57.8v40.3c0,0.6-0.4,1.1-0.9,1.3c-0.5,0.2-1.2,0.1-1.6-0.3L3.6,50.7
		c-0.6-0.6-0.6-1.5,0-2L51.3,0.8c0.4-0.4,1-0.5,1.6-0.3c0.5,0.2,0.9,0.8,0.9,1.3v39.8L94.4,0.8c0.4-0.4,1-0.5,1.6-0.3
		c0.5,0.2,0.9,0.8,0.9,1.3v96.3c0,0.6-0.4,1.1-0.9,1.3C95.8,99.6,95.6,99.6,95.4,99.6z M6.6,49.7l44.2,45V54.3
		c0-0.6,0.4-1.1,0.9-1.3c0.5-0.2,1.2-0.1,1.6,0.3L94,94.6V5.3L53.3,46.2c-0.4,0.4-1,0.5-1.6,0.3c-0.5-0.2-0.9-0.8-0.9-1.3V5.3
		L6.6,49.7z"/>
</g>
</svg>
