<?xml version="1.0" encoding="utf-8"?>
<!-- Generator: Adobe Illustrator 23.0.1, SVG Export Plug-In . SVG Version: 6.00 Build 0)  -->
<svg version="1.1" id="Layer_1" xmlns="http://www.w3.org/2000/svg" xmlns:xlink="http://www.w3.org/1999/xlink" x="0px" y="0px"
	 viewBox="0 0 100 100" style="enable-background:new 0 0 100 100;" xml:space="preserve">
<g>
	<path d="M5.4,99.6c-0.2,0-0.4,0-0.5-0.1c-0.5-0.2-0.9-0.8-0.9-1.3V1.8c0-0.6,0.4-1.1,0.9-1.3C5.4,0.3,6,0.4,6.4,0.8L47,41.6V1.8
		c0-0.6,0.4-1.1,0.9-1.3c0.5-0.2,1.2-0.1,1.6,0.3l47.7,47.8c0.6,0.6,0.6,1.5,0,2L49.5,99.2c-0.4,0.4-1,0.5-1.6,0.3
		c-0.5-0.2-0.9-0.8-0.9-1.3V57.8L6.4,99.2C6.1,99.5,5.8,99.6,5.4,99.6z M48.5,52.8c0.2,0,0.4,0,0.5,0.1c0.5,0.2,0.9,0.8,0.9,1.3
		v40.3l44.2-45L49.9,5.3v39.8c0,0.6-0.4,1.1-0.9,1.3c-0.5,0.2-1.2,0.1-1.6-0.3L6.8,5.3v89.3l40.6-41.3C47.7,53,48.1,52.8,48.5,52.8z
		"/>
</g>
</svg>
