<?xml version="1.0" encoding="utf-8"?>
<!-- Generator: Adobe Illustrator 23.0.1, SVG Export Plug-In . SVG Version: 6.00 Build 0)  -->
<svg version="1.1" id="Layer_1" xmlns="http://www.w3.org/2000/svg" xmlns:xlink="http://www.w3.org/1999/xlink" x="0px" y="0px"
	 viewBox="0 0 100 100" style="enable-background:new 0 0 100 100;" xml:space="preserve">
<g>
	<path d="M81.7,0.4H18.3c-9.9,0-17.9,8.1-17.9,18v63.2c0,9.9,8,18,17.9,18h63.4c9.9,0,17.9-8.1,17.9-18V18.4
		C99.6,8.5,91.6,0.4,81.7,0.4z M18.3,3.3h63.4c8.3,0,15,6.8,15,15.1v63.2c0,8.3-6.7,15.1-15,15.1H18.3c-8.3,0-15-6.8-15-15.1V18.4
		C3.3,10.1,10,3.3,18.3,3.3z"/>
	<path d="M32.1,63.7c8.3,0,15-6.7,15-14.9S40.4,34,32.1,34c-8.2,0-14.9,6.7-14.9,14.9S23.9,63.7,32.1,63.7z M32.1,60.9
		c-6.6,0-12-5.4-12-12c0-6.6,5.4-12,12-12c6.7,0,12.1,5.3,12.1,11.9C44.2,55.5,38.8,60.9,32.1,60.9z"/>
	<path d="M70,63.7c8.2,0,14.9-6.7,14.9-14.9c0-3.9-1.4-7.7-4.2-10.5C77.9,35.5,74.1,34,70,34c-8.2,0-14.9,6.7-14.9,14.9
		S61.8,63.7,70,63.7z M70,37c6.6,0,12,5.4,12,12c0,6.6-5.4,12-12,12s-12-5.4-12-12C58.1,42.3,63.4,37,70,37z"/>
</g>
</svg>
