<?xml version="1.0" encoding="utf-8"?>
<!-- Generator: Adobe Illustrator 23.0.1, SVG Export Plug-In . SVG Version: 6.00 Build 0)  -->
<svg version="1.1" id="Layer_1" xmlns="http://www.w3.org/2000/svg" xmlns:xlink="http://www.w3.org/1999/xlink" x="0px" y="0px"
	 viewBox="0 0 100 100" style="enable-background:new 0 0 100 100;" xml:space="preserve">
<g>
	<path d="M39.4,0.4H2c-0.8,0-1.5,0.6-1.5,1.5v37.4c0,0.8,0.6,1.5,1.5,1.5s1.5-0.6,1.5-1.5v-36h36c0.8,0,1.5-0.6,1.5-1.5
		C40.9,1,40.1,0.4,39.4,0.4z"/>
	<path d="M39.4,96.6h-36v-36c0-0.8-0.6-1.5-1.5-1.5s-1.5,0.6-1.5,1.5v37.4c0,0.8,0.6,1.5,1.5,1.5h37.4c0.8,0,1.5-0.6,1.5-1.5
		C40.9,97.2,40.1,96.6,39.4,96.6z"/>
	<path d="M98,0.4H60.6c-0.8,0-1.5,0.6-1.5,1.5c0,0.9,0.8,1.5,1.5,1.5h36v36c0,0.8,0.6,1.5,1.5,1.5s1.5-0.6,1.5-1.5V1.9
		C99.5,1.1,98.8,0.4,98,0.4z"/>
	<path d="M98,59.3c-0.8,0-1.5,0.6-1.5,1.5v36h-36c-0.8,0-1.5,0.6-1.5,1.5c0,0.8,0.6,1.5,1.5,1.5H98c0.8,0,1.5-0.6,1.5-1.5V60.8
		C99.5,60,98.8,59.3,98,59.3z"/>
</g>
</svg>
