<?xml version="1.0" encoding="utf-8"?>
<!-- Generator: Adobe Illustrator 23.0.1, SVG Export Plug-In . SVG Version: 6.00 Build 0)  -->
<svg version="1.1" id="Layer_1" xmlns="http://www.w3.org/2000/svg" xmlns:xlink="http://www.w3.org/1999/xlink" x="0px" y="0px"
	 viewBox="0 0 100 100" style="enable-background:new 0 0 100 100;" xml:space="preserve">
<g>
	<path d="M52.6,27.3c0-11.5-9.4-20.9-20.9-20.9c-11.6,0-21,9.4-21,20.9c0,10.9,8.4,20,19.2,20.9c1,1.8,3.8,8.1,0.8,14
		c-1.2-0.1-2.5-0.2-3.8-0.2c-14.2,0-25.8,8.4-25.8,18.8s11.6,18.8,25.8,18.8S52.6,91,52.6,80.6c0-8.6-7.7-15.9-18.8-18.1
		c1.9-4.2,1.7-9.2-0.5-14.4C44,47.3,52.6,38.3,52.6,27.3z M26.8,96.4c-12.6,0-22.8-7.1-22.8-15.8s10.2-15.8,22.8-15.8
		s22.8,7.1,22.8,15.8S39.3,96.4,26.8,96.4z M31.5,9.3c9.9,0,17.9,8,17.9,17.9c0,9.9-8,18-17.9,18s-17.9-8-17.9-17.9
		C13.6,17.3,21.7,9.3,31.5,9.3z"/>
	<path d="M97.6,19.1H80.1v-17c0-0.9-0.6-1.5-1.5-1.5c-0.9,0-1.5,0.8-1.5,1.5v17H59.7c-0.9,0-1.5,0.6-1.5,1.5s0.6,1.5,1.5,1.5h17.3
		v18c0,0.9,0.6,1.5,1.5,1.5s1.5-0.6,1.5-1.5v-18h17.5c0.9,0,1.5-0.6,1.5-1.5S98.4,19.1,97.6,19.1z"/>
</g>
</svg>
