<?xml version="1.0" encoding="utf-8"?>
<!-- Generator: Adobe Illustrator 23.0.1, SVG Export Plug-In . SVG Version: 6.00 Build 0)  -->
<svg version="1.1" id="Layer_1" xmlns="http://www.w3.org/2000/svg" xmlns:xlink="http://www.w3.org/1999/xlink" x="0px" y="0px"
	 viewBox="0 0 100 100" style="enable-background:new 0 0 100 100;" xml:space="preserve">
<g>
	<path d="M90.4,0.4H9.6c-5.1,0-9.2,4.1-9.2,9.2v80.7c0,5.1,4.1,9.2,9.2,9.2h80.7c5.1,0,9.2-4.1,9.2-9.2V9.6
		C99.6,4.5,95.5,0.4,90.4,0.4z M90.4,96.7H9.6c-3.4,0-6.3-2.9-6.3-6.3V9.6c0-3.4,2.9-6.3,6.3-6.3h80.7c3.4,0,6.3,2.9,6.3,6.3v80.7
		C96.7,93.8,93.8,96.7,90.4,96.7z"/>
	<path d="M49.9,29.8C36,29.8,24.7,41.1,24.7,55c0.1,13.9,11.4,25.2,25.2,25.2c13.9,0,25.2-11.3,25.2-25.2S63.8,29.8,49.9,29.8z
		 M49.9,32.7c12.3,0,22.3,10,22.3,22.3s-10,22.3-22.3,22.3c-12.3,0-22.3-10-22.3-22.3S37.6,32.7,49.9,32.7z"/>
	<path d="M71.8,15.3c-5,0-9.1,4.1-9.1,9.1s4.1,9.1,9.1,9.1c5,0,9.1-4.1,9.1-9.1S76.8,15.3,71.8,15.3z M71.8,30.5
		c-3.4,0-6.2-2.8-6.2-6.2c0-3.4,2.8-6.2,6.2-6.2c3.4,0,6.2,2.8,6.2,6.2C78,27.7,75.2,30.5,71.8,30.5z"/>
</g>
</svg>
