<?xml version="1.0" encoding="utf-8"?>
<!-- Generator: Adobe Illustrator 23.0.1, SVG Export Plug-In . SVG Version: 6.00 Build 0)  -->
<svg version="1.1" id="Layer_1" xmlns="http://www.w3.org/2000/svg" xmlns:xlink="http://www.w3.org/1999/xlink" x="0px" y="0px"
	 viewBox="0 0 100 100" style="enable-background:new 0 0 100 100;" xml:space="preserve">
<g>
	<path d="M89.4,11.6c-2.2-2.4-5.3-3.6-8.7-3.6c-3.3,0-6.4,1.3-8.8,3.6L58.9,24.6c-2.3,2.3-3.6,5.5-3.6,8.8c0,1.4,0.3,2.6,0.7,4
		l0.9,2.1l10.4-10.3c0.3-0.3,0.8-0.5,1.3-0.5c0.4,0,0.9,0.2,1.3,0.6c0.3,0.3,0.5,0.8,0.5,1.3c0,0.5-0.2,1-0.5,1.3L59.1,42.6l1.5,0.9
		c2,1.4,4.5,2.1,6.9,2.1c3.3,0,6.4-1.3,8.8-3.6l13.1-13c2.3-2.3,3.6-5.5,3.6-8.8S91.7,13.9,89.4,11.6z M72,34.2
		c1.9-1.9,1.9-4.9,0-6.8c-0.8-1-2.1-1.5-3.4-1.5c-1.3,0-2.6,0.5-3.4,1.4l-6.9,6.9c0-0.2,0-0.5,0-0.8c0-2.5,1-4.9,2.8-6.7L74,13.5
		c1.8-1.8,4.2-2.8,6.7-2.8c2.5,0,4.8,1,6.6,2.8c1.8,1.8,2.8,4.2,2.8,6.7s-1,4.9-2.8,6.7L74.2,40c-1.8,1.8-4.2,2.8-6.7,2.8
		c-1.3,0-2.5-0.3-3.6-0.7L72,34.2z"/>
	<path d="M94.1,6.8c-3.5-3.6-8.3-5.6-13.4-5.6c-5.1,0-9.9,2-13.5,5.6l-13.1,13c-3.6,3.6-5.6,8.4-5.6,13.5c0,2.8,0.7,5.6,1.9,8.4
		l-8.6,8.5c-2.9-1.6-6.1-2.5-9.4-2.5c-5.1,0-9.9,2-13.5,5.6L6,66.3c-3.6,3.6-5.6,8.4-5.6,13.5c0,5.1,2,9.9,5.6,13.5
		c3.5,3.5,8.3,5.5,13.4,5.5s9.9-2,13.5-5.6l13.1-13c3.6-3.6,5.6-8.4,5.6-13.5c0-3.5-0.9-6.9-2.7-9.8l8-7.9c3.2,2.2,6.9,3.3,10.7,3.3
		c5.1,0,9.9-2,13.5-5.6l13-13c3.6-3.6,5.6-8.4,5.6-13.5C99.7,15.3,97.8,10.5,94.1,6.8z M67.6,49.5c-3.7,0-7.1-1.2-10-3.5l-0.9-0.9
		L45,56.6l0.7,1c1.9,2.7,2.9,5.9,2.9,9.2c0,4.4-1.6,8.3-4.7,11.4L30.8,91.2c-3,3-7.1,4.7-11.4,4.7c-4.2,0-8.3-1.7-11.3-4.7
		c-3-3-4.7-7.1-4.7-11.4c0-4.4,1.6-8.3,4.7-11.4l13.1-13.1c3-3,7.1-4.7,11.4-4.7c3.2,0,6.2,0.9,8.8,2.7l1,0.6l11.9-11.8l-0.6-0.9
		c-1.3-2.5-2-5.2-2-7.9c0-4.3,1.7-8.4,4.7-11.4L69.3,8.8c3-3,7.1-4.7,11.4-4.7C85,4.1,89,5.8,92,8.8c3,3,4.7,7.1,4.7,11.4
		c0,4.4-1.6,8.3-4.7,11.4L79,44.8C76,47.8,71.9,49.5,67.6,49.5z"/>
	<path d="M42.5,58.9l-10.1,10c-0.7,0.7-2,0.6-2.6,0.1c-0.4-0.5-0.6-0.9-0.6-1.4c0-0.4,0.2-0.9,0.6-1.3l9.9-9.8l-1.9-0.9
		c-5.1-2.2-10.5-1.1-14.1,2.5l-13.1,13c-2.3,2.3-3.6,5.5-3.6,8.8c0,3.3,1.3,6.4,3.6,8.7c2.2,2.4,5.3,3.6,8.7,3.6
		c3.3,0,6.4-1.3,8.8-3.6l13.1-13.2c2.3-2.3,3.6-5.5,3.6-8.8c0-2-0.5-4-1.5-5.8L42.5,58.9z M27.8,64.2c-1,0.8-1.5,2.1-1.5,3.4
		c0,1.3,0.5,2.6,1.4,3.4c0.9,0.9,2.2,1.5,3.4,1.5c1.3,0,2.5-0.5,3.3-1.4l7.1-7c0.2,0.8,0.4,1.7,0.4,2.6c0,2.5-1,4.9-2.8,6.7L26,86.5
		c-1.8,1.8-4.2,2.8-6.7,2.8c-2.5,0-4.8-1-6.6-2.8C11,84.7,10,82.3,10,79.8s1-4.9,2.8-6.7L25.9,60c1.8-1.8,4.2-2.8,6.7-2.8
		c0.6,0,1.3,0.1,2,0.2L27.8,64.2z"/>
</g>
</svg>
