<?xml version="1.0" encoding="utf-8"?>
<!-- Generator: Adobe Illustrator 23.0.1, SVG Export Plug-In . SVG Version: 6.00 Build 0)  -->
<svg version="1.1" id="Layer_1" xmlns="http://www.w3.org/2000/svg" xmlns:xlink="http://www.w3.org/1999/xlink" x="0px" y="0px"
	 viewBox="0 0 100 100" style="enable-background:new 0 0 100 100;" xml:space="preserve">
<g>
	<path d="M14.1,0.7c-0.8,0-1.5,0.6-1.5,1.5V23c0,0.8,0.6,1.5,1.5,1.5s1.5-0.6,1.5-1.5V2.1C15.5,1.3,14.9,0.7,14.1,0.7z"/>
	<path d="M14.1,35c-0.8,0-1.5,0.6-1.5,1.5v62c0,0.8,0.6,1.5,1.5,1.5s1.5-0.6,1.5-1.5v-62C15.5,35.6,14.9,35,14.1,35z"/>
	<path d="M65.6,37.8c-11.6,0-19.2,4.2-23.1,8.8V36.4c0-0.8-0.6-1.5-1.5-1.5s-1.5,0.6-1.5,1.5v62c0,0.8,0.6,1.5,1.5,1.5
		s1.5-0.6,1.5-1.5V52.6c0.1-1.5,5.1-11.8,23.1-11.8c15.7,0,18.6,11,18.9,12.2v45.4c0,0.8,0.6,1.5,1.5,1.5c0.8,0,1.5-0.6,1.5-1.5
		V52.7C87.4,52.6,84.4,37.8,65.6,37.8z"/>
</g>
</svg>
