<?xml version="1.0" encoding="utf-8"?>
<!-- Generator: Adobe Illustrator 23.0.1, SVG Export Plug-In . SVG Version: 6.00 Build 0)  -->
<svg version="1.1" id="Layer_1" xmlns="http://www.w3.org/2000/svg" xmlns:xlink="http://www.w3.org/1999/xlink" x="0px" y="0px"
	 viewBox="0 0 100 100" style="enable-background:new 0 0 100 100;" xml:space="preserve">
<path d="M99.4,1.5c-0.1-0.2-0.2-0.4-0.5-0.6c-0.4-0.3-0.8-0.3-1-0.3L31.4,11.2c-0.7,0.1-1.3,0.7-1.3,1.5v65.5c-3-3.5-8-5.8-13.4-5.8
	c-9,0-16.3,6.1-16.3,13.5c0,7.4,7.3,13.5,16.3,13.5c8.4,0,15.3-5.2,16.2-12.1c0.1-0.3,0.1-0.5,0.1-0.6V34.6l63.5-10.2V70
	c-3-3.6-7.9-5.8-13.3-5.8c-8.9,0-16.1,6.1-16.1,13.5s7.2,13.5,16.1,13.5c8.7,0,15.7-5.6,16.1-12.7c0.1-0.2,0.2-0.4,0.2-0.8v-76
	L99.4,1.5z M83.3,88c-7.3,0-13.2-4.7-13.2-10.5c0-5.8,5.9-10.5,13.2-10.5c7.3,0,13.2,4.7,13.2,10.4C96.4,83.3,90.5,88,83.3,88z
	 M96.6,3.8v17.5L33,31.5V14L96.6,3.8z M16.7,75.5c7.4,0,13.4,4.7,13.4,10.4C30,91.7,24,96.4,16.7,96.4c-7.4,0-13.4-4.7-13.4-10.5
	C3.3,80.2,9.3,75.5,16.7,75.5z"/>
</svg>
