<?xml version="1.0" encoding="utf-8"?>
<!-- Generator: Adobe Illustrator 23.0.1, SVG Export Plug-In . SVG Version: 6.00 Build 0)  -->
<svg version="1.1" id="Layer_1" xmlns="http://www.w3.org/2000/svg" xmlns:xlink="http://www.w3.org/1999/xlink" x="0px" y="0px"
	 viewBox="0 0 100 100" style="enable-background:new 0 0 100 100;" xml:space="preserve">
<g>
	<path d="M34.5,1C33.6,1,33,1.6,33,2.4v32.3H2.2c-0.8,0-1.5,0.6-1.5,1.5c0,0.8,0.6,1.5,1.5,1.5h32.3c0.8,0,1.5-0.6,1.5-1.5V2.4
		C35.9,1.6,35.2,1,34.5,1z"/>
	<path d="M66.1,37.6h32.3c0.8,0,1.5-0.6,1.5-1.5s-0.6-1.5-1.5-1.5H67.6V2.4C67.6,1.6,67,1,66.1,1c-0.8,0-1.5,0.6-1.5,1.5v33.8
		C64.7,37,65.3,37.6,66.1,37.6z"/>
	<path d="M34.5,62.5H2.2c-0.8,0-1.5,0.6-1.5,1.5c0,0.8,0.6,1.5,1.5,1.5H33v32.3c0,0.8,0.6,1.5,1.5,1.5s1.5-0.6,1.5-1.5V64
		C35.9,63.1,35.2,62.5,34.5,62.5z"/>
	<path d="M98.4,62.5H66.1c-0.8,0-1.5,0.6-1.5,1.5v33.8c0,0.8,0.6,1.5,1.5,1.5c0.8,0,1.5-0.6,1.5-1.5V65.4h30.9
		c0.8,0,1.5-0.6,1.5-1.5C99.9,63.1,99.3,62.5,98.4,62.5z"/>
</g>
</svg>
