<?xml version="1.0" encoding="utf-8"?>
<!-- Generator: Adobe Illustrator 23.0.1, SVG Export Plug-In . SVG Version: 6.00 Build 0)  -->
<svg version="1.1" id="Layer_1" xmlns="http://www.w3.org/2000/svg" xmlns:xlink="http://www.w3.org/1999/xlink" x="0px" y="0px"
	 viewBox="0 0 100 100" style="enable-background:new 0 0 100 100;" xml:space="preserve">
<g>
	<path d="M71.4,20.5H6.2c-3.5,0-6.3,2.8-6.3,6.3v67c0,3.5,2.8,6.3,6.3,6.3h65.2c3.5,0,6.3-2.8,6.3-6.3v-67
		C77.8,23.4,74.9,20.5,71.4,20.5z M72.8,93.9c0,0.7-0.6,1.3-1.3,1.3H6.2c-0.7,0-1.3-0.6-1.3-1.3v-67c0-0.7,0.6-1.3,1.3-1.3h65.2
		c0.7,0,1.3,0.6,1.3,1.3V93.9z"/>
	<path d="M75.4,10.1H14.3c-1.4,0-2.5,1.1-2.5,2.5s1.1,2.5,2.5,2.5h61.1c4.9,0,8.9,3.9,8.9,8.6v64.5c0,1.4,1.1,2.5,2.5,2.5
		s2.5-1.1,2.5-2.5V23.7C89.3,16.2,83.1,10.1,75.4,10.1z"/>
	<path d="M78.4,0.3H26.2c-1.4,0-2.5,1.1-2.5,2.5s1.1,2.5,2.5,2.5h52.2c9.1,0,16.6,7.2,16.6,16v59.5c0,1.4,1.1,2.5,2.5,2.5
		s2.5-1.1,2.5-2.5V21.3C99.9,9.7,90.3,0.3,78.4,0.3z"/>
	<path d="M55.5,54.7l-21-17c-1.9-1.5-4.5-1.8-6.7-0.7c-2.2,1.1-3.6,3.3-3.6,5.7v34.8c0,2.5,1.4,4.7,3.7,5.8c0.9,0.4,1.8,0.6,2.6,0.6
		c1.5,0,3-0.5,4.1-1.6l21-17.8c1.4-1.3,2.2-3.1,2.2-5S56.9,55.9,55.5,54.7z M52.4,60.7l-21,17.8c-0.6,0.5-1.2,0.3-1.4,0.2
		c-0.2-0.1-0.8-0.4-0.8-1.2V42.7c0-0.8,0.5-1.1,0.8-1.2c0.1-0.1,0.4-0.1,0.6-0.1c0.2,0,0.5,0.1,0.8,0.3l21,17c0.4,0.3,0.5,0.8,0.5,1
		S52.8,60.4,52.4,60.7z"/>
</g>
</svg>
