<?xml version="1.0" encoding="utf-8"?>
<!-- Generator: Adobe Illustrator 23.0.1, SVG Export Plug-In . SVG Version: 6.00 Build 0)  -->
<svg version="1.1" id="Layer_1" xmlns="http://www.w3.org/2000/svg" xmlns:xlink="http://www.w3.org/1999/xlink" x="0px" y="0px"
	 viewBox="0 0 100 100" style="enable-background:new 0 0 100 100;" xml:space="preserve">
<g>
	<path d="M93.1,0.7H29.6c-3.7,0-6.6,3-6.6,6.6V11c0,3.7,3,6.6,6.6,6.6h63.4c3.7,0,6.6-3,6.6-6.6V7.3C99.7,3.7,96.7,0.7,93.1,0.7z
		 M94.7,11c0,0.9-0.7,1.6-1.6,1.6H29.6c-0.9,0-1.6-0.7-1.6-1.6V7.3c0-0.9,0.7-1.6,1.6-1.6h63.4c0.9,0,1.6,0.7,1.6,1.6V11z"/>
	<path d="M10.4,0.7H7c-3.7,0-6.6,3-6.6,6.6V11c0,3.7,3,6.6,6.6,6.6h3.4c3.7,0,6.6-3,6.6-6.6V7.3C17,3.7,14.1,0.7,10.4,0.7z M12,11
		c0,0.9-0.7,1.6-1.6,1.6H7c-0.9,0-1.6-0.7-1.6-1.6V7.3c0-0.9,0.7-1.6,1.6-1.6h3.4c0.9,0,1.6,0.7,1.6,1.6V11z"/>
	<path d="M93.1,28H29.6c-3.7,0-6.6,3-6.6,6.6v3.6c0,3.7,3,6.6,6.6,6.6h63.4c3.7,0,6.6-3,6.6-6.6v-3.6C99.7,30.9,96.7,28,93.1,28z
		 M94.7,38.2c0,0.9-0.7,1.6-1.6,1.6H29.6c-0.9,0-1.6-0.7-1.6-1.6v-3.6c0-0.9,0.7-1.6,1.6-1.6h63.4c0.9,0,1.6,0.7,1.6,1.6V38.2z"/>
	<path d="M10.4,28H7c-3.7,0-6.6,3-6.6,6.6v3.6c0,3.7,3,6.6,6.6,6.6h3.4c3.7,0,6.6-3,6.6-6.6v-3.6C17,30.9,14.1,28,10.4,28z M12,38.2
		c0,0.9-0.7,1.6-1.6,1.6H7c-0.9,0-1.6-0.7-1.6-1.6v-3.6C5.3,33.7,6.1,33,7,33h3.4c0.9,0,1.6,0.7,1.6,1.6V38.2z"/>
	<path d="M93.1,55.2H29.6c-3.7,0-6.6,3-6.6,6.6v3.6c0,3.7,3,6.6,6.6,6.6h63.4c3.7,0,6.6-3,6.6-6.6v-3.6
		C99.7,58.2,96.7,55.2,93.1,55.2z M94.7,65.5c0,0.9-0.7,1.6-1.6,1.6H29.6c-0.9,0-1.6-0.7-1.6-1.6v-3.6c0-0.9,0.7-1.6,1.6-1.6h63.4
		c0.9,0,1.6,0.7,1.6,1.6V65.5z"/>
	<path d="M10.4,55.2H7c-3.7,0-6.6,3-6.6,6.6v3.6c0,3.7,3,6.6,6.6,6.6h3.4c3.7,0,6.6-3,6.6-6.6v-3.6C17,58.2,14.1,55.2,10.4,55.2z
		 M12,65.5c0,0.9-0.7,1.6-1.6,1.6H7c-0.9,0-1.6-0.7-1.6-1.6v-3.6c0-0.9,0.7-1.6,1.6-1.6h3.4c0.9,0,1.6,0.7,1.6,1.6V65.5z"/>
	<path d="M93.1,82.5H29.6c-3.7,0-6.6,3-6.6,6.6v3.6c0,3.7,3,6.6,6.6,6.6h63.4c3.7,0,6.6-3,6.6-6.6v-3.6
		C99.7,85.5,96.7,82.5,93.1,82.5z M94.7,92.8c0,0.9-0.7,1.6-1.6,1.6H29.6c-0.9,0-1.6-0.7-1.6-1.6v-3.6c0-0.9,0.7-1.6,1.6-1.6h63.4
		c0.9,0,1.6,0.7,1.6,1.6V92.8z"/>
	<path d="M10.4,82.5H7c-3.7,0-6.6,3-6.6,6.6v3.6c0,3.7,3,6.6,6.6,6.6h3.4c3.7,0,6.6-3,6.6-6.6v-3.6C17,85.5,14.1,82.5,10.4,82.5z
		 M12,92.8c0,0.9-0.7,1.6-1.6,1.6H7c-0.9,0-1.6-0.7-1.6-1.6v-3.6c0-0.9,0.7-1.6,1.6-1.6h3.4c0.9,0,1.6,0.7,1.6,1.6V92.8z"/>
</g>
</svg>
