<?xml version="1.0" encoding="utf-8"?>
<!-- Generator: Adobe Illustrator 23.0.1, SVG Export Plug-In . SVG Version: 6.00 Build 0)  -->
<svg version="1.1" id="Layer_1" xmlns="http://www.w3.org/2000/svg" xmlns:xlink="http://www.w3.org/1999/xlink" x="0px" y="0px"
	 viewBox="0 0 100 100" style="enable-background:new 0 0 100 100;" xml:space="preserve">
<g>
	<path d="M97.3,49c-1.4,0-2.5,1.1-2.5,2.5v36.2c0,3.9-3.2,7.1-7.1,7.1H12.3c-3.9,0-7.1-3.2-7.1-7.1V12.3c0-3.9,3.2-7.1,7.1-7.1h36.1
		c1.4,0,2.5-1.1,2.5-2.5s-1.1-2.5-2.5-2.5H12.3C5.6,0.2,0.2,5.6,0.2,12.3v75.4c0,6.7,5.4,12.1,12.1,12.1h75.4
		c6.7,0,12.1-5.4,12.1-12.1V51.5C99.8,50.1,98.7,49,97.3,49z"/>
	<path d="M87.7,0.2H61.9c-1.4,0-2.5,1.1-2.5,2.5s1.1,2.5,2.5,2.5h25.8c1.1,0,2.1,0.3,3,0.7L14.3,80.4c-1,1-1,2.5,0,3.5
		c0.5,0.5,1.1,0.8,1.8,0.8c0.6,0,1.3-0.2,1.7-0.7L94.2,9.5c0.4,0.9,0.6,1.8,0.6,2.8v25.4c0,1.4,1.1,2.5,2.5,2.5s2.5-1.1,2.5-2.5
		V12.3C99.8,5.6,94.4,0.2,87.7,0.2z"/>
</g>
</svg>
