<?xml version="1.0" encoding="utf-8"?>
<!-- Generator: Adobe Illustrator 23.0.1, SVG Export Plug-In . SVG Version: 6.00 Build 0)  -->
<svg version="1.1" id="Layer_1" xmlns="http://www.w3.org/2000/svg" xmlns:xlink="http://www.w3.org/1999/xlink" x="0px" y="0px"
	 viewBox="0 0 100 100" style="enable-background:new 0 0 100 100;" xml:space="preserve">
<g>
	<path d="M65.1,72.5c-14,9.1-28.9,0.7-29.9,0.1l-0.2-0.1c-0.7-0.3-1.5-0.1-1.9,0.5l-0.1,0.1c-0.3,0.7-0.1,1.5,0.5,1.9l0,0
		c1.2,0.8,8.5,4.7,17.4,4.7c5.6,0,11-1.6,15.9-4.6l0.2-0.1c0.6-0.6,0.7-1.4,0.2-2C66.6,72.2,65.8,72,65.1,72.5z"/>
	<path d="M38.7,56.7c0-4.2-3.4-7.6-7.6-7.6c-4.2,0-7.6,3.4-7.6,7.6c0,4.3,3.3,7.6,7.6,7.6C35.3,64.3,38.7,60.9,38.7,56.7z
		 M31.1,61.4c-2.6,0-4.7-2.1-4.7-4.7c0-2.6,2.1-4.7,4.7-4.7c2.6,0,4.7,2.1,4.7,4.7C35.8,59.3,33.7,61.4,31.1,61.4z"/>
	<path d="M68.9,49.1c-4.2,0-7.6,3.4-7.6,7.6c0,4.3,3.3,7.6,7.6,7.6c4.3,0,7.6-3.3,7.6-7.6C76.5,52.5,73.1,49.1,68.9,49.1z M68.9,52
		c2.6,0,4.7,2.1,4.7,4.7c0,2.6-2.1,4.7-4.7,4.7c-2.6,0-4.7-2.1-4.7-4.7C64.2,54.1,66.3,52,68.9,52z"/>
	<path d="M99.6,44.3c0-6.1-5-11-11-11c-5,0-9.3,3.4-10.6,8.1c-7.5-4.8-17.1-7.4-27.2-7.5l10-21.8l15.5,3.2c0,0.1,0,0.3,0,0.4
		c0,4.9,3.9,8.8,8.8,8.8c4.9,0,8.8-3.9,8.8-8.8s-3.9-8.8-8.8-8.8c-3.7,0-6.9,2.3-8.2,5.6L59,8.7L47.3,33.8
		c-9.4,0.5-18.2,3.2-25.1,7.7c-1.3-4.8-5.6-8.3-10.8-8.3c-6.1,0-11,5-11,11c0,5.7,4.3,10.3,9.8,11c-1,2.6-1.6,5.3-1.6,8.2
		c0,16.4,18.6,29.7,41.5,29.7c22.9,0,41.5-13.3,41.5-29.7c0-2.7-0.6-5.5-1.6-8.2C95.4,54.4,99.6,49.8,99.6,44.3z M50.2,90.2
		c-21.3,0-38.6-12-38.6-26.8c0-3,0.8-6.1,2.2-9c0,0,0-0.1,0.1-0.1c0.1-0.1,0.1-0.2,0.2-0.4c1.1-1.9,2.3-3.5,3.8-5l0.2-0.2l0.1-0.2
		c0.1-0.1,0.3-0.3,0.5-0.4l1.1-1.1c0.2-0.2,0.3-0.3,0.5-0.5l0.1-0.1c0.1-0.1,0.1-0.1,0.2-0.2c0.1-0.1,0.2-0.2,0.3-0.3
		c0.1-0.1,0.3-0.2,0.4-0.3c0.1-0.1,0.2-0.2,0.4-0.3c7.3-5.5,17.7-8.7,28.4-8.7c10.7,0,21,3.1,28.3,8.5c0.1,0.1,0.2,0.2,0.3,0.2
		c0.1,0.1,0.2,0.2,0.4,0.3c0.1,0.1,0.2,0.2,0.3,0.3c0.1,0.1,0.2,0.1,0.3,0.2c0.1,0.1,0.3,0.2,0.4,0.3c0.1,0,0.1,0.1,0.2,0.2l0.1,0.1
		c0.2,0.1,0.4,0.3,0.6,0.6l1.5,1.5c0.2,0.2,0.4,0.4,0.6,0.6c0,0,0,0,0,0v0.1l0.2,0.3c1.1,1.3,2,2.6,2.8,3.9c0.1,0.1,0.2,0.2,0.2,0.3
		c0.1,0.1,0.2,0.3,0.2,0.4c1.5,2.8,2.2,5.8,2.2,9C88.9,78.3,71.5,90.2,50.2,90.2z M19.6,43.4c-3.6,2.8-6.2,5.8-8,9.1h-0.1
		c-4.6-0.1-8.1-3.7-8.1-8.2c0-4.5,3.6-8.1,8.1-8.1C15.7,36.2,19.2,39.4,19.6,43.4z M88.8,52.4c-2-3.5-4.8-6.7-8.3-9.3
		c0.6-4,4-7,8.1-7c4.5,0,8.1,3.6,8.1,8.1C96.7,48.5,93.1,52.2,88.8,52.4z M84.9,21.4c-3.2,0-5.9-2.7-5.9-5.9c0-3.2,2.6-5.9,5.9-5.9
		s5.9,2.6,5.9,5.9C90.8,18.7,88.1,21.4,84.9,21.4z"/>
</g>
</svg>
