<?xml version="1.0" encoding="utf-8"?>
<!-- Generator: Adobe Illustrator 23.0.1, SVG Export Plug-In . SVG Version: 6.00 Build 0)  -->
<svg version="1.1" id="Layer_1" xmlns="http://www.w3.org/2000/svg" xmlns:xlink="http://www.w3.org/1999/xlink" x="0px" y="0px"
	 viewBox="0 0 100 100" style="enable-background:new 0 0 100 100;" xml:space="preserve">
<g>
	<path d="M34.2,96.1H5l29.7-31c0.6-0.6,0.6-1.5,0-2.1c-0.4-0.4-0.8-0.4-1-0.4c-0.4,0-0.8,0.2-1.1,0.5L3.4,93.6V63.9
		c0-0.8-0.6-1.5-1.5-1.5c-0.8,0-1.5,0.6-1.5,1.5v33.8c0,0.1,0,0.2,0,0.3l-0.1,0.1h0.1c0.2,0.6,0.7,1,1.4,1h32.3
		c0.8,0,1.5-0.6,1.5-1.5S35,96.1,34.2,96.1z"/>
	<path d="M99.5,98c0-0.1,0-0.3,0-0.4V63.9c0-0.8-0.6-1.5-1.5-1.5c-0.8,0-1.5,0.6-1.5,1.5v29.8L67.4,63.1c-0.1-0.1-0.5-0.5-1.1-0.5
		c-0.2,0-0.6,0-1,0.4c-0.6,0.6-0.6,1.5,0,2l29.7,31H65.8c-0.8,0-1.5,0.6-1.5,1.5S65,99,65.8,99h32.3C98.8,99,99.3,98.6,99.5,98
		L99.5,98L99.5,98z"/>
	<path d="M1.9,37.6c0.8,0,1.5-0.6,1.5-1.5V6l29.3,30.6c0.6,0.6,1.5,0.6,2.1,0c0.3-0.3,0.4-0.6,0.4-1c0-0.4-0.2-0.8-0.4-1L5.3,3.9
		h28.8c0.8,0,1.5-0.6,1.5-1.5c0-0.8-0.6-1.5-1.5-1.5H1.7C1.5,1,1.4,1,1.2,1.1l-0.7,0l0,0.2l-0.1,0V36C0.4,36.9,1.1,37.6,1.9,37.6z"
		/>
	<path d="M65.8,3.9h28.8L65.3,34.5c-0.3,0.3-0.4,0.6-0.4,1c0,0.4,0.2,0.8,0.4,1c0.6,0.6,1.5,0.6,2.1,0L96.6,6v30.2
		c0,0.8,0.6,1.5,1.5,1.5c0.8,0,1.5-0.6,1.5-1.5V2.4c0-0.8-0.6-1.5-1.5-1.5H65.8c-0.8,0-1.5,0.6-1.5,1.5C64.3,3.3,65,3.9,65.8,3.9z"
		/>
</g>
</svg>
