<?xml version="1.0" encoding="utf-8"?>
<!-- Generator: Adobe Illustrator 23.0.1, SVG Export Plug-In . SVG Version: 6.00 Build 0)  -->
<svg version="1.1" id="Layer_1" xmlns="http://www.w3.org/2000/svg" xmlns:xlink="http://www.w3.org/1999/xlink" x="0px" y="0px"
	 viewBox="0 0 100 100" style="enable-background:new 0 0 100 100;" xml:space="preserve">
<g>
	<path d="M35.9,63.5c-0.2-0.6-0.8-1-1.4-1H2.2c-0.8,0-1.5,0.6-1.5,1.5c0,0.8,0.6,1.5,1.5,1.5h29.3l-29.7,31c-0.6,0.6-0.6,1.5,0,2.1
		c0.4,0.4,0.8,0.4,1,0.4c0.4,0,0.8-0.2,1.1-0.5L33,67.9v29.7c0,0.8,0.6,1.5,1.5,1.5s1.5-0.6,1.5-1.5V64c0-0.1,0-0.3-0.1-0.4l0.1-0.1
		H35.9z"/>
	<path d="M98.4,62.5H66.1c-0.7,0-1.2,0.4-1.4,1h0l0,0c0,0.1-0.1,0.3-0.1,0.5v33.8c0,0.8,0.6,1.5,1.5,1.5c0.8,0,1.5-0.6,1.5-1.5V68
		l29.3,30.6C97,98.7,97.4,99,98,99c0.2,0,0.6,0,1-0.4c0.6-0.6,0.6-1.5,0-2L69.3,65.4h29.2c0.8,0,1.5-0.6,1.5-1.5
		C99.9,63.1,99.3,62.5,98.4,62.5z"/>
	<path d="M2.2,37.6h32.5c0.2,0,0.3,0,0.4-0.1h0.2l0.3-0.3l0.4-0.5V2.4c0-0.9-0.8-1.5-1.5-1.5C33.6,1,33,1.6,33,2.4v30.1L3.7,2
		C3.2,1.4,2.2,1.4,1.7,2C1.4,2.2,1.2,2.6,1.2,3c0,0.4,0.2,0.8,0.4,1L31,34.7H2.2c-0.8,0-1.5,0.6-1.5,1.5S1.3,37.6,2.2,37.6z"/>
	<path d="M66.1,37.6h32.3c0.8,0,1.5-0.6,1.5-1.5s-0.6-1.5-1.5-1.5H69.6L99,4c0.3-0.3,0.4-0.6,0.4-1c0-0.4-0.2-0.8-0.4-1
		c-0.6-0.6-1.5-0.6-2.1,0L67.6,32.5V2.4C67.6,1.6,67,1,66.1,1c-0.8,0-1.5,0.6-1.5,1.5v33.8C64.7,37,65.3,37.6,66.1,37.6z"/>
</g>
</svg>
