<?xml version="1.0" encoding="utf-8"?>
<!-- Generator: Adobe Illustrator 23.0.1, SVG Export Plug-In . SVG Version: 6.00 Build 0)  -->
<svg version="1.1" id="Layer_1" xmlns="http://www.w3.org/2000/svg" xmlns:xlink="http://www.w3.org/1999/xlink" x="0px" y="0px"
	 viewBox="0 0 100 100" style="enable-background:new 0 0 100 100;" xml:space="preserve">
<path d="M67.9,73L52.5,90.9V2.8c0-1.4-1.1-2.5-2.5-2.5s-2.5,1.1-2.5,2.5v87.7L32.1,73c-0.9-1-2.5-1.1-3.5-0.2
	c-1,0.9-1.1,2.5-0.2,3.5l20,22.7c0.5,0.5,1.2,0.8,1.9,0.8c0,0,0,0,0,0c0.7,0,1.4-0.3,1.9-0.9l19.6-22.7c0.9-1,0.8-2.6-0.3-3.5
	C70.4,71.9,68.8,72,67.9,73z"/>
</svg>
