<?xml version="1.0" encoding="utf-8"?>
<!-- Generator: Adobe Illustrator 23.0.1, SVG Export Plug-In . SVG Version: 6.00 Build 0)  -->
<svg version="1.1" id="Layer_1" xmlns="http://www.w3.org/2000/svg" xmlns:xlink="http://www.w3.org/1999/xlink" x="0px" y="0px"
	 viewBox="0 0 100 100" style="enable-background:new 0 0 100 100;" xml:space="preserve">
<path d="M67.9,27.1L52.5,9.2v88.1c0,1.4-1.1,2.5-2.5,2.5s-2.5-1.1-2.5-2.5V9.6L32.1,27.1c-0.9,1-2.5,1.1-3.5,0.2s-1.1-2.5-0.2-3.5
	l20-22.7c0.5-0.5,1.2-0.8,1.9-0.8l0,0c0.7,0,1.4,0.3,1.9,0.9l19.6,22.7c0.9,1,0.8,2.6-0.3,3.5C70.4,28.2,68.8,28.1,67.9,27.1z"/>
</svg>
