<?xml version="1.0" encoding="utf-8"?>
<!-- Generator: Adobe Illustrator 23.0.1, SVG Export Plug-In . SVG Version: 6.00 Build 0)  -->
<svg version="1.1" id="Layer_1" xmlns="http://www.w3.org/2000/svg" xmlns:xlink="http://www.w3.org/1999/xlink" x="0px" y="0px"
	 viewBox="0 0 100 100" style="enable-background:new 0 0 100 100;" xml:space="preserve">
<path d="M80,67c-6,0-11.2,3.2-14,8L30.8,58.6c1.5-2.5,2.5-5.4,2.5-8.6c0-2.9-0.7-5.6-2.1-7.9l34.9-16.8C69,29.9,74.1,33,80,33
	c9,0,16.3-7.3,16.3-16.3c0-9-7.3-16.3-16.3-16.3c-9,0-16.3,7.3-16.3,16.3c0,1.7,0.3,3.4,0.8,5L28.8,38.8c-3-3.2-7.2-5.1-11.9-5.1
	C8,33.7,0.6,41,0.6,50C0.6,59,8,66.3,17,66.3c4.4,0,8.3-1.7,11.3-4.5l36.1,17c-0.4,1.5-0.7,3-0.7,4.6c0,9,7.3,16.3,16.3,16.3
	c9,0,16.3-7.3,16.3-16.3S89,67,80,67z M80,4.3c6.8,0,12.3,5.5,12.3,12.3C92.3,23.4,86.7,29,80,29c-6.8,0-12.3-5.5-12.3-12.3
	C67.6,9.9,73.2,4.3,80,4.3z M17,62.3c-6.8,0-12.3-5.5-12.3-12.3S10.2,37.7,17,37.7c6.8,0,12.3,5.5,12.3,12.3S23.7,62.3,17,62.3z
	 M80,95.7c-6.8,0-12.3-5.5-12.3-12.3S73.2,71,80,71c6.8,0,12.3,5.5,12.3,12.3S86.7,95.7,80,95.7z"/>
</svg>
