<?xml version="1.0" encoding="utf-8"?>
<!-- Generator: Adobe Illustrator 23.0.1, SVG Export Plug-In . SVG Version: 6.00 Build 0)  -->
<svg version="1.1" id="Layer_1" xmlns="http://www.w3.org/2000/svg" xmlns:xlink="http://www.w3.org/1999/xlink" x="0px" y="0px"
	 viewBox="0 0 100 100" style="enable-background:new 0 0 100 100;" xml:space="preserve">
<g>
	<path d="M82.3,51.2c-1-1-2.6-0.9-3.5,0.1c-1,1-0.9,2.6,0.1,3.5l12.4,11.9H71.1c-1.1,0-2.3-0.1-3.1-0.7c-3.4-2.6-8.8-7.4-13.7-11.9
		c-1-0.9-2.6-0.8-3.5,0.2c-0.9,1-0.8,2.6,0.2,3.5c5,4.5,10.5,9.4,14,12.1c2,1.5,4.2,1.7,6.1,1.7h19.7l-12,10.9
		c-1,0.9-1.1,2.5-0.2,3.5c0.5,0.5,1.2,0.8,1.9,0.8c0.6,0,1.2-0.2,1.7-0.6L99.1,71c0.5-0.5,0.8-1.1,0.8-1.8s-0.3-1.4-0.8-1.8
		L82.3,51.2z"/>
	<path d="M71.1,32.3h20.3L78.9,43.7c-1,0.9-1.1,2.5-0.2,3.5c0.5,0.5,1.2,0.8,1.9,0.8c0.6,0,1.2-0.2,1.7-0.6l16.9-15.3
		c0.5-0.5,0.8-1.1,0.8-1.8s-0.3-1.4-0.8-1.8L82.3,12.4c-1-1-2.6-0.9-3.5,0.1c-1,1-0.9,2.6,0.1,3.5l11.9,11.4H71.1
		c-4.6,0-7.2,2.5-8.9,4.1c-9.4,9-23.6,23.1-33,32.8c-1.4,1.4-4,2.5-5.3,2.5H2.1c-1.4,0-2.5,1.1-2.5,2.5s1.1,2.5,2.5,2.5H24
		c2.8,0,6.6-1.8,8.8-4C42.2,58,56.4,44,65.8,35C67.1,33.7,68.5,32.3,71.1,32.3z"/>
	<path d="M2.5,32.5l21.9,0c0.7,0,2.8,0.7,3.6,1.5c3.4,3.5,7,6.9,11.6,11.1c0.5,0.4,1.1,0.7,1.7,0.7c0.7,0,1.3-0.3,1.8-0.8
		c0.9-1,0.9-2.6-0.2-3.5c-4.5-4.2-8-7.4-11.4-10.9c-1.9-2-5.6-3-7.2-3H2.5C1.1,27.5,0,28.6,0,30S1.1,32.5,2.5,32.5z"/>
</g>
</svg>
