<?xml version="1.0" encoding="utf-8"?>
<!-- Generator: Adobe Illustrator 23.0.1, SVG Export Plug-In . SVG Version: 6.00 Build 0)  -->
<svg version="1.1" id="Layer_1" xmlns="http://www.w3.org/2000/svg" xmlns:xlink="http://www.w3.org/1999/xlink" x="0px" y="0px"
	 viewBox="0 0 100 100" style="enable-background:new 0 0 100 100;" xml:space="preserve">
<g>
	<path d="M44.9,73L29.5,90.9V2.8c0-1.4-1.1-2.5-2.5-2.5s-2.5,1.1-2.5,2.5v87.7L9.1,73c-0.9-1-2.5-1.1-3.5-0.2
		c-1,0.9-1.1,2.5-0.2,3.5l20,22.7c0.5,0.5,1.2,0.8,1.9,0.8c0,0,0,0,0,0c0.7,0,1.4-0.3,1.9-0.9l19.6-22.7c0.9-1,0.8-2.6-0.3-3.5
		C47.4,71.9,45.8,72,44.9,73z"/>
	<path d="M52.3,49.3h13.1c1.4,0,2.5-1.1,2.5-2.5s-1.1-2.5-2.5-2.5h-4.2l3.4-9.7h17.1l3.4,9.7H81c-1.4,0-2.5,1.1-2.5,2.5
		s1.1,2.5,2.5,2.5h13.1c1.4,0,2.5-1.1,2.5-2.5s-1.1-2.5-2.5-2.5h-3.6l-14.8-42c-0.2-0.8-0.7-1.6-1.6-1.9c-0.1,0-0.1,0-0.2-0.1
		c0,0,0,0-0.1,0c-0.1,0-0.2,0-0.4-0.1c-0.1,0-0.1,0-0.2,0c-0.1,0-0.1,0-0.2,0c-0.1,0-0.2,0-0.4,0.1c0,0,0,0-0.1,0
		c-0.1,0-0.1,0-0.2,0.1c-0.9,0.3-1.5,1.1-1.6,1.9l-14.8,42h-3.6c-1.4,0-2.5,1.1-2.5,2.5S50.9,49.3,52.3,49.3z M66.4,29.6l6.8-19.3
		L80,29.6H66.4z"/>
	<path d="M86.9,72.9c1.8-1.8,3.1-4.2,3.5-6.9c0.1-0.3,0.1-0.5,0.1-0.8v-1c0-0.3,0-0.5-0.1-0.8c-0.9-6.2-6.1-11.3-12-11.3H52.1
		c-1.4,0-2.5,1.1-2.5,2.5s1.1,2.5,2.5,2.5h0.7v37.1h-0.7c-1.4,0-2.5,1.1-2.5,2.5s1.1,2.5,2.5,2.5h31.1c7.4,0,13.4-6,13.4-13.4
		C96.6,79.6,92.5,74.5,86.9,72.9z M78.4,57.1c3.5,0,6.8,3.6,7.1,7.6c-0.3,3.7-3.3,6.6-7.1,6.6H57.8V57.1H78.4z M83.2,94.2H57.8V77.3
		h25.3c4.6,0,8.4,3.8,8.4,8.4C91.6,90.4,87.8,94.2,83.2,94.2z"/>
</g>
</svg>
