<?xml version="1.0" encoding="utf-8"?>
<!-- Generator: Adobe Illustrator 23.0.1, SVG Export Plug-In . SVG Version: 6.00 Build 0)  -->
<svg version="1.1" id="Layer_1" xmlns="http://www.w3.org/2000/svg" xmlns:xlink="http://www.w3.org/1999/xlink" x="0px" y="0px"
	 viewBox="0 0 100 100" style="enable-background:new 0 0 100 100;" xml:space="preserve">
<g>
	<path d="M63.5,10.8l7.2-3.9v37h-4.8c-1.4,0-2.5,1.1-2.5,2.5s1.1,2.5,2.5,2.5h15.2c1.4,0,2.5-1.1,2.5-2.5s-1.1-2.5-2.5-2.5h-5.4V2.7
		c0-0.9-0.5-1.7-1.2-2.1c-0.8-0.5-1.7-0.5-2.5,0L61.1,6.4c-1.2,0.7-1.7,2.2-1,3.4C60.8,11,62.3,11.4,63.5,10.8z"/>
	<path d="M44.9,73L29.5,90.9V2.8c0-1.4-1.1-2.5-2.5-2.5s-2.5,1.1-2.5,2.5v87.7L9.1,73c-0.9-1-2.5-1.1-3.5-0.2
		c-1,0.9-1.1,2.5-0.2,3.5l20,22.7c0.5,0.5,1.2,0.8,1.9,0.8c0,0,0,0,0,0c0.7,0,1.4-0.3,1.9-0.9l19.6-22.7c0.9-1,0.8-2.6-0.3-3.5
		C47.4,71.9,45.8,72,44.9,73z"/>
	<path d="M87.4,89.5c-1.4,0-2.5,1.1-2.5,2.5v2.7H66.6l17.2-19.3c4.1-4.1,5.2-9.9,3-15.2c-2.2-5.4-7.2-8.7-13-8.7
		c-7.7,0-14,6.3-14,14v0.1c0,1.4,1.1,2.5,2.5,2.5s2.5-1.2,2.5-2.5c0-5,4-9,9-9c4.4,0,7.2,2.9,8.3,5.6c1.1,2.7,1.2,6.7-2,9.8
		c0,0-0.1,0.1-0.1,0.1l-21,23.6c-0.7,0.7-0.8,1.8-0.4,2.7c0.4,0.9,1.3,1.5,2.3,1.5h26.4c1.4,0,2.5-1.1,2.5-2.5V92
		C89.9,90.6,88.8,89.5,87.4,89.5z"/>
</g>
</svg>
