<?xml version="1.0" encoding="utf-8"?>
<!-- Generator: Adobe Illustrator 23.0.1, SVG Export Plug-In . SVG Version: 6.00 Build 0)  -->
<svg version="1.1" id="Layer_1" xmlns="http://www.w3.org/2000/svg" xmlns:xlink="http://www.w3.org/1999/xlink" x="0px" y="0px"
	 viewBox="0 0 100 100" style="enable-background:new 0 0 100 100;" xml:space="preserve">
<path d="M97.6,51.1h-1.6V27.9c0-0.8-0.6-1.5-1.5-1.5h-6.9c-0.8,0-1.5,0.6-1.5,1.5v23.2h-4V34.8c0-0.8-0.6-1.5-1.5-1.5h-6.9
	c-0.8,0-1.5,0.6-1.5,1.5v16.3h-4V39.7c0-0.8-0.6-1.5-1.5-1.5h-6.9c-0.8,0-1.5,0.6-1.5,1.5v11.4H55V1.9c0-0.6-0.3-1.1-0.8-1.4
	c-0.6-0.3-1.2,0-1.5,0.1l-0.2,0.1L29.9,26.8c-0.4,0.4-0.4,0.8-0.4,1v23.3h-2v-19c0-0.8-0.6-1.5-1.5-1.5H5.4c-0.8,0-1.5,0.6-1.5,1.5
	v19H2.4c-0.8,0-1.5,0.6-1.5,1.5c0,0.8,0.6,1.5,1.5,1.5h1.6v19.3c0,0.8,0.6,1.5,1.5,1.5H26c0.8,0,1.5-0.6,1.5-1.5V54h2v25.5
	c0,0.6,0.3,0.9,0.5,1.1l22.8,18.7c0.4,0.3,0.8,0.3,0.9,0.3h0.4l0.2-0.1c0.5-0.3,0.8-0.8,0.8-1.4V54h3.7v10.1c0,0.8,0.6,1.5,1.5,1.5
	h6.9c0.8,0,1.5-0.6,1.5-1.5V54h4v15.1c0,0.8,0.6,1.5,1.5,1.5H81c0.8,0,1.5-0.6,1.5-1.5V54h4v21.9c0,0.8,0.6,1.5,1.5,1.5h6.9
	c0.8,0,1.5-0.6,1.5-1.5V54h1.4c0.8,0,1.5-0.6,1.5-1.5C99.1,51.7,98.5,51.1,97.6,51.1z M93.2,54v20.4h-4V54H93.2z M93.2,29.3v21.8h-4
	V29.3H93.2z M79.5,54v13.6h-4V54H79.5z M79.5,36.2v14.9h-4V36.2H79.5z M65.7,54v8.7h-4V54H65.7z M65.8,41.2v9.9h-4v-9.9H65.8z
	 M52.2,54v41L32.4,78.8V54H52.2z M32.4,51.1V28.3L52.2,5.7v45.4H32.4z M6.8,51.1V33.6h17.7v17.5H6.8z M6.8,71.9V54h17.7v17.9H6.8z"
	/>
</svg>
