<?xml version="1.0" encoding="utf-8"?>
<!-- Generator: Adobe Illustrator 23.0.1, SVG Export Plug-In . SVG Version: 6.00 Build 0)  -->
<svg version="1.1" id="Layer_1" xmlns="http://www.w3.org/2000/svg" xmlns:xlink="http://www.w3.org/1999/xlink" x="0px" y="0px"
	 viewBox="0 0 100 100" style="enable-background:new 0 0 100 100;" xml:space="preserve">
<g>
	<path d="M54.3,0.5c-0.6-0.3-1.2,0-1.5,0.1l-0.2,0.1L29.9,26.8c-0.4,0.4-0.4,0.8-0.4,1v51.7c0,0.6,0.3,0.9,0.5,1.1l22.8,18.7
		c0.4,0.3,0.8,0.3,0.9,0.3h0.4l0.2-0.1c0.5-0.3,0.8-0.8,0.8-1.4V1.9C55.2,1.3,54.8,0.8,54.3,0.5z M52.2,5.7V95L32.4,78.8V28.3
		L52.2,5.7z"/>
	<path d="M26,30.7H5.4c-0.8,0-1.5,0.6-1.5,1.5v41.2c0,0.8,0.6,1.5,1.5,1.5H26c0.8,0,1.5-0.6,1.5-1.5V32.1
		C27.4,31.4,26.8,30.7,26,30.7z M6.8,71.9V33.6h17.7v38.3H6.8z"/>
	<path d="M67.1,38.2h-6.9c-0.8,0-1.5,0.6-1.5,1.5v24.4c0,0.8,0.6,1.5,1.5,1.5h6.9c0.8,0,1.5-0.6,1.5-1.5V39.7
		C68.6,38.9,67.9,38.2,67.1,38.2z M61.7,62.6V41.2h4v21.5H61.7z"/>
	<path d="M80.9,33.3H74c-0.8,0-1.5,0.6-1.5,1.5v34.3c0,0.8,0.6,1.5,1.5,1.5h6.9c0.8,0,1.5-0.6,1.5-1.5V34.7
		C82.4,33.9,81.6,33.3,80.9,33.3z M75.5,67.6V36.2h4v31.4H75.5z"/>
	<path d="M94.6,26.4h-6.9c-0.8,0-1.5,0.6-1.5,1.5v48c0,0.8,0.6,1.5,1.5,1.5h6.9c0.8,0,1.5-0.6,1.5-1.5v-48
		C96.1,27,95.5,26.4,94.6,26.4z M89.2,74.4V29.3h4v45.1H89.2z"/>
</g>
</svg>
