<?xml version="1.0" encoding="utf-8"?>
<!-- Generator: Adobe Illustrator 23.0.1, SVG Export Plug-In . SVG Version: 6.00 Build 0)  -->
<svg version="1.1" id="Layer_1" xmlns="http://www.w3.org/2000/svg" xmlns:xlink="http://www.w3.org/1999/xlink" x="0px" y="0px"
	 viewBox="0 0 100 100" style="enable-background:new 0 0 100 100;" xml:space="preserve">
<path d="M79,91.4c-0.9-2.7-1.9-5.5-2.9-8.5l-1.4-4.1l-0.1-0.2c-0.1-0.2-0.3-0.7-0.8-1l-0.1-0.1c-0.7-0.4-1.4-0.2-1.7,0
	c-3,1.1-5.8,1.5-8.5,1.2c-2.7-0.3-4.3-1.6-5.2-3.9c-0.5-1.4-0.7-2.8-0.7-4.4v-28h17.1c1.4,0,2.2-0.8,2.2-2.2v-13
	c0-1.4-0.8-2.2-2.2-2.2h-17V2.6c0-1.4-0.9-2.2-2.2-2.2H42.6c-1.6,0-2.5,0.6-2.9,2.2l-0.1,0.5c-0.2,1.1-0.4,2.3-0.6,3.3
	c-2.3,10.2-7.7,16.9-16.8,20.4c-0.9,0.5-1.4,1.2-1.4,2.2v11.2c0,0.3,0,1,0.6,1.6c0.6,0.6,1.2,0.6,1.6,0.6h7.7v29.5
	c0,2.5,0.2,4.5,0.7,6.4c2.4,9.8,8.3,16.3,17.4,19.5c3.6,1.3,7.3,1.9,11.2,1.9c4.4,0,8.6-0.8,13-2.5c1.6-0.7,3.5-1.5,5.3-3
	C78.6,93.8,79.6,92.8,79,91.4z M33,40.1c-0.5-0.6-1.3-0.6-1.7-0.6h-7.5l0-10c9.8-3.9,15.7-11.1,18.1-22.3c0.3-1.3,0.5-2.6,0.7-3.8
	h12v22.3c0,0.4,0,1.1,0.6,1.7c0.6,0.6,1.2,0.6,1.7,0.6h17v11.7H56.7c-0.4,0-1.1,0-1.7,0.6c-0.6,0.6-0.6,1.3-0.6,1.8v28.7
	c0,2.1,0.3,3.8,0.9,5.4c1.3,3.3,3.9,5.3,7.6,5.8c3,0.3,6-0.1,9.2-1.2c0.4,1.2,0.8,2.4,1.2,3.6c0.9,2.8,1.8,5.5,2.7,8
	c-1.3,1.2-3,1.9-4.2,2.3c-7.5,2.9-14.9,3-22.1,0.5c-8.1-2.8-13.4-8.7-15.6-17.4c-0.4-1.6-0.6-3.4-0.6-5.7V41.8
	C33.6,41.4,33.6,40.7,33,40.1z"/>
</svg>
