<?xml version="1.0" encoding="utf-8"?>
<!-- Generator: Adobe Illustrator 23.0.1, SVG Export Plug-In . SVG Version: 6.00 Build 0)  -->
<svg version="1.1" id="Layer_1" xmlns="http://www.w3.org/2000/svg" xmlns:xlink="http://www.w3.org/1999/xlink" x="0px" y="0px"
	 viewBox="0 0 100 100" style="enable-background:new 0 0 100 100;" xml:space="preserve">
<path d="M99.1,16.4l-0.2-0.2C92.2,10.3,80.1,0.4,74,0.4c-9,0-16.7,13.1-22.4,22.7L51.1,24c-3.1,5.2-7,11.6-8.9,11.6
	c-2.7,0-21.7-13.9-39.2-27.7C2.8,7.6,2.6,7.5,2.3,7.4C2.1,7.3,1.7,7.3,1.2,7.5C0.7,7.8,0.4,8.3,0.4,8.9v15.7c0,0.2,0,0.6,0.3,0.9
	c0.4,0.6,2.2,3.2,11.1,15.8l2.6,3.7c0.6,0.9,0.5,1.4,0.3,1.8c-0.8,1.7-4.4,3.3-8.8,3.7c-1.8,0.2-2.3,1.4-2.3,1.7
	C3.2,53.3,2.2,56.4,20.6,73l0.1,0.1c0.4,0.4,1.5,1.6,1.4,2.6l0,0.1c0,0.2,0,0.8-1.3,1.6c-3.7,2.3-14.3,9.3-14.6,9.6
	c-0.1,0.1-0.5,0.5-0.5,1.1c0,0.4,0.1,0.9,0.9,1.3l0.2,0.1c3.9,2,17,8.5,24.5,8.6h0.2c9.4,0,31.2-8.2,41.8-27.8
	c5-9.3,5.9-14.9,6.7-19.4l0.1-0.6c0.4-3,0.8-5.8,2.5-9.3c3.2-6.5,9.6-18.1,16.5-22.3l0.2-0.1c0.1-0.1,0.5-0.5,0.5-1.1
	C99.6,17.2,99.4,16.7,99.1,16.4z M25.2,76.2c0.2-2.4-1.6-4.3-2.4-5.1C14.4,63.7,7.2,55.8,6.5,53.6c2.3-0.3,9.1-1.5,11-5.5
	c0.7-1.6,0.5-3.2-0.6-4.7C14.4,39.6,5.3,26.6,3.5,24.1V12.1c11.3,8.9,34.4,26.5,38.8,26.5c3.6,0,7-5.7,11.8-13.6l0.2-0.3
	c5.3-9,12.6-21.3,19.9-21.3c4.5,0,15.3,8.4,21.6,14c-6.4,4.9-12.2,14.8-15.9,22.5c-1.8,3.6-2.3,6.5-2.8,9.9l0,0.2
	c-0.7,4.7-1.5,10-6.4,19.1c-9.3,17.5-30.1,26.3-39.1,26.3h-0.2c-5.8-0.1-16.3-4.7-21.2-7.2c3.2-2.1,9.1-6.1,12.3-7.9
	C24.2,79,25.1,77.7,25.2,76.2z"/>
</svg>
