<?xml version="1.0" encoding="utf-8"?>
<!-- Generator: Adobe Illustrator 23.0.1, SVG Export Plug-In . SVG Version: 6.00 Build 0)  -->
<svg version="1.1" id="Layer_1" xmlns="http://www.w3.org/2000/svg" xmlns:xlink="http://www.w3.org/1999/xlink" x="0px" y="0px"
	 viewBox="0 0 100 100" style="enable-background:new 0 0 100 100;" xml:space="preserve">
<path d="M98.1,14.9L98.1,14.9c-1.9-3.9-5.4-6.4-10.4-7.5l-0.2,0c-0.1,0-0.1,0-0.3-0.1l-0.7-0.2l-0.3,0c-0.2,0-0.3,0-0.5,0
	c-0.2,0-0.4-0.1-0.7-0.1c-0.9-0.1-1.9-0.1-2.7,0l-0.1,0c-0.3,0.1-0.6,0.1-1,0.1l-0.2,0c-0.3,0.1-0.6,0.1-0.9,0.2
	c-0.2,0.1-0.5,0.1-0.7,0.2c-1.3,0.2-2.6,0.6-3.8,1c-10.7,4-17.1,11.5-19.5,22.9l0,0.2c0,0.4,0.2,0.9,0.5,1.2
	c0.4,0.4,1.1,0.6,1.6,0.3l0.5-0.3c0.3-0.1,0.5-0.2,0.6-0.3c0.5-0.1,1-0.3,1.5-0.5c1.2-0.5,2.1-0.8,3.1-0.9c2.8-0.3,4.9,1.3,5.5,4.2
	c0.5,2.5,0.1,5.1-1.1,7.6c-2.8,6-6,11.1-9.5,15.6c-0.7,0.8-1.5,1.7-2.3,2.3c-0.8,0.6-1.2,0.6-1.2,0.6c0,0-0.3-0.1-0.8-1
	c-0.8-1.4-1.4-2.9-1.8-4c-3-9-4.7-18-6.3-27.3c-0.6-3-1.3-6.2-2.3-9.3c-0.2-0.7-0.4-1.3-0.5-2c-0.2-0.6-0.3-1.3-0.5-1.9
	c0-0.3-0.2-0.6-0.3-0.9L42.7,15l-0.1-0.1C39.3,8.1,34.3,6.1,27.3,9c-5.1,2-9.8,5.2-15.3,10.4c-1.8,1.7-3.5,3.5-5.2,5.2
	c-0.8,0.9-1.7,1.7-2.6,2.6c-1.1,1.2-2.3,2.3-3.4,3.5l-0.1,0.1l-0.1,0.1c-0.2,0.5-0.2,1.1,0,1.6l4,5.4c0.4,0.6,1.2,0.8,1.9,0.4
	l1.6-0.9c0.4-0.2,0.7-0.4,1.1-0.6c1-0.6,1.9-1.1,2.9-1.6c0.2-0.1,0.5-0.2,0.8-0.3l0.4-0.1c1.9-0.6,2.3-0.2,2.9,1.3
	c2,5.8,4.2,12.4,6.5,19.7C24,60,25.1,63.4,26,66.5c1.5,5,3.2,10.2,4.9,15.6c1.5,4.7,4.4,8.5,8.5,11.4c2.4,1.7,5.1,2.6,7.7,2.6
	c2.5,0,5-0.9,7.5-2.6c4.9-3.3,9.9-7.6,16-13.8c9.4-9.5,16.6-19.2,22-29.7C103.2,28.9,99,16.9,98.1,14.9z M41.2,91
	c-3.6-2.6-6.1-5.9-7.4-9.9c-1.7-5.3-3.4-10.6-4.9-15.6c-0.7-2-1.3-4-1.9-6.1c-0.5-1.6-1-3.1-1.5-4.7c-0.6-1.9-1.3-3.9-2-5.9
	c-1.5-4.5-3-9.1-4.6-13.8c-0.5-1.5-1.5-3.5-4.3-3.5c-0.8,0-1.6,0.2-2.4,0.6c-0.6,0.2-1.2,0.4-1.7,0.6c-1,0.5-2,1.1-3,1.7
	c-0.4,0.2-0.7,0.4-1.1,0.6l-0.4,0.2L3.7,32c0.3-0.3,0.7-0.7,1-1c0.5-0.5,1-1.1,1.6-1.6c2.5-2.6,5.1-5.3,7.7-7.7
	c5.1-4.8,9.7-8,14.4-9.9c5.6-2.3,9.1-1,11.8,4.6l0.1,0.1l0.2,0.2c0.2,1.1,0.6,2.2,0.9,3.3l0.2,0.7c0.9,3,1.7,6,2.2,9
	c1.3,7.7,3.1,17.8,6.4,27.7c0.5,1.4,1.1,2.9,2,4.5c0.8,1.7,2,2.3,2.8,2.5l0.1,0c1.1,0.1,2.3-0.3,3.5-1.3c1-0.9,1.9-1.8,2.7-2.8
	c3.5-4.3,6.7-9.4,9.9-16.3c1.5-3.1,1.9-6.3,1.2-9.4c-0.9-4.4-4.4-7-8.7-6.6c-1.1,0.1-2.1,0.4-3.1,0.8c-0.2,0.1-0.5,0.2-0.7,0.3
	c-0.1,0-0.1,0-0.2,0.1c2.6-8.7,8.2-14.6,17-17.9c1.1-0.4,2.3-0.7,3.4-0.9c0.3-0.1,0.6-0.1,0.8-0.2c0.2-0.1,0.4-0.1,0.6-0.2
	c0.2,0,0.4,0,0.6-0.1c0.2,0,0.3,0,0.5,0h2.2C85.3,10,85.6,10,86,10l0.1,0c0.2,0.1,0.4,0.1,0.6,0.1c0.1,0,0.2,0,0.3,0.1l0.1,0
	c4.1,0.8,6.8,2.7,8.4,5.9c1.2,2.2,3.6,14.3-5.4,32.3c-5.1,10-12.1,19.5-21.5,29C62.9,83.3,58.1,87.5,53.1,91
	C49.1,93.7,45.2,93.7,41.2,91z"/>
</svg>
