<?xml version="1.0" encoding="utf-8"?>
<!-- Generator: Adobe Illustrator 23.0.1, SVG Export Plug-In . SVG Version: 6.00 Build 0)  -->
<svg version="1.1" id="Layer_1" xmlns="http://www.w3.org/2000/svg" xmlns:xlink="http://www.w3.org/1999/xlink" x="0px" y="0px"
	 viewBox="0 0 100 100" style="enable-background:new 0 0 100 100;" xml:space="preserve">
<g>
	<path d="M14.4,29H2.2c-1.1,0-2,0.9-2,2v38c0,1.1,0.9,2,2,2h12.2c1.1,0,2-0.9,2-2V31C16.4,29.9,15.5,29,14.4,29z M12.4,67H4.2V33
		h8.2V67z"/>
	<path d="M63.3,38.6h-8.9c-1.1,0-2,0.9-2,2v20.2c0,1.1,0.9,2,2,2h8.9c1.1,0,2-0.9,2-2V40.6C65.3,39.5,64.4,38.6,63.3,38.6z
		 M61.3,58.8h-4.9V42.6h4.9V58.8z"/>
	<path d="M81.1,32.6h-8.9c-1.1,0-2,0.9-2,2v32.1c0,1.1,0.9,2,2,2h8.9c1.1,0,2-0.9,2-2V34.6C83.1,33.5,82.2,32.6,81.1,32.6z
		 M79.1,64.7h-4.9V36.6h4.9V64.7z"/>
	<path d="M97.9,22.7H89c-1.1,0-2,0.9-2,2v52.1c0,1.1,0.9,2,2,2h8.9c1.1,0,2-0.9,2-2V24.7C99.9,23.6,99,22.7,97.9,22.7z M95.9,74.7
		H91V26.7h4.9V74.7z"/>
	<path d="M46.9,1.2c-0.8-0.3-1.6-0.1-2.2,0.5L21.1,27.8c-0.3,0.4-0.5,0.8-0.5,1.3v41.7c0,0.5,0.2,1,0.5,1.3l23.7,26.1
		c0.4,0.4,0.9,0.7,1.5,0.7c0.2,0,0.5,0,0.7-0.1c0.8-0.3,1.3-1,1.3-1.9V3C48.2,2.2,47.7,1.5,46.9,1.2z M44.2,91.8L24.6,70.1V29.9
		L44.2,8.2V91.8z"/>
</g>
</svg>
