<?xml version="1.0" encoding="utf-8"?>
<!-- Generator: Adobe Illustrator 23.0.1, SVG Export Plug-In . SVG Version: 6.00 Build 0)  -->
<svg version="1.1" id="Layer_1" xmlns="http://www.w3.org/2000/svg" xmlns:xlink="http://www.w3.org/1999/xlink" x="0px" y="0px"
	 viewBox="0 0 100 100" style="enable-background:new 0 0 100 100;" xml:space="preserve">
<g>
	<path d="M50,0.7C22.8,0.7,0.7,22.8,0.7,50S22.8,99.3,50,99.3c27.2,0,49.3-22.1,49.3-49.3S77.2,0.7,50,0.7z M50,94.3
		C25.6,94.3,5.7,74.4,5.7,50S25.6,5.7,50,5.7c24.4,0,44.3,19.9,44.3,44.3S74.4,94.3,50,94.3z"/>
	<path d="M73.8,47.1H52.4V13.9c0-1.4-1.1-2.5-2.5-2.5c-1.4,0-2.5,1.1-2.5,2.5v33.2H43c-1.4,0-2.5,1.1-2.5,2.5c0,1.4,1.1,2.5,2.5,2.5
		h4.5v4.7c0,1.4,1.1,2.5,2.5,2.5c1.4,0,2.5-1.1,2.5-2.5v-4.7h21.3c1.4,0,2.5-1.1,2.5-2.5C76.3,48.2,75.1,47.1,73.8,47.1z"/>
</g>
</svg>
